<svg width="86" height="20" viewBox="0 0 86 20" fill="none" xmlns="http://www.w3.org/2000/svg">
<path d="M6.26394 4.232H0.439938V0.799999H16.2999V4.232H10.4759V19H6.26394V4.232ZM30.5603 12.058C30.5603 12.11 30.5343 12.474 30.4823 13.15H19.9003C20.091 14.0167 20.5417 14.7013 21.2523 15.204C21.963 15.7067 22.847 15.958 23.9043 15.958C24.6323 15.958 25.2737 15.854 25.8283 15.646C26.4003 15.4207 26.929 15.074 27.4143 14.606L29.5723 16.946C28.255 18.454 26.331 19.208 23.8003 19.208C22.223 19.208 20.8277 18.9047 19.6143 18.298C18.401 17.674 17.465 16.816 16.8063 15.724C16.1477 14.632 15.8183 13.3927 15.8183 12.006C15.8183 10.6367 16.139 9.406 16.7803 8.314C17.439 7.20467 18.3317 6.34667 19.4583 5.74C20.6023 5.116 21.8763 4.804 23.2803 4.804C24.6497 4.804 25.889 5.09867 26.9983 5.688C28.1077 6.27733 28.9743 7.12667 29.5983 8.236C30.2397 9.328 30.5603 10.602 30.5603 12.058ZM23.3063 7.872C22.3877 7.872 21.6163 8.132 20.9923 8.652C20.3683 9.172 19.987 9.88267 19.8483 10.784H26.7383C26.5997 9.9 26.2183 9.198 25.5943 8.678C24.9703 8.14067 24.2077 7.872 23.3063 7.872ZM52.896 15.1H44.446L42.834 19H38.518L46.63 0.799999H50.79L58.928 19H54.508L52.896 15.1ZM51.57 11.902L48.684 4.934L45.798 11.902H51.57ZM64.4042 6.858C64.8895 6.182 65.5395 5.67067 66.3542 5.324C67.1862 4.97733 68.1395 4.804 69.2142 4.804V8.548C68.7635 8.51333 68.4602 8.496 68.3042 8.496C67.1429 8.496 66.2329 8.82533 65.5742 9.484C64.9155 10.1253 64.5862 11.096 64.5862 12.396V19H60.5302V5.012H64.4042V6.858ZM78.155 19.208C76.6816 19.208 75.3556 18.9047 74.177 18.298C73.0156 17.674 72.1056 16.816 71.447 15.724C70.7883 14.632 70.459 13.3927 70.459 12.006C70.459 10.6193 70.7883 9.38 71.447 8.288C72.1056 7.196 73.0156 6.34667 74.177 5.74C75.3556 5.116 76.6816 4.804 78.155 4.804C79.6283 4.804 80.9456 5.116 82.107 5.74C83.2683 6.34667 84.1783 7.196 84.837 8.288C85.4956 9.38 85.825 10.6193 85.825 12.006C85.825 13.3927 85.4956 14.632 84.837 15.724C84.1783 16.816 83.2683 17.674 82.107 18.298C80.9456 18.9047 79.6283 19.208 78.155 19.208ZM78.155 15.88C79.195 15.88 80.0443 15.5333 80.703 14.84C81.379 14.1293 81.717 13.1847 81.717 12.006C81.717 10.8273 81.379 9.89133 80.703 9.198C80.0443 8.48733 79.195 8.132 78.155 8.132C77.115 8.132 76.257 8.48733 75.581 9.198C74.905 9.89133 74.567 10.8273 74.567 12.006C74.567 13.1847 74.905 14.1293 75.581 14.84C76.257 15.5333 77.115 15.88 78.155 15.88Z" fill="url(#paint0_linear_193_3)"/>
<defs>
<linearGradient id="paint0_linear_193_3" x1="3.241e-07" y1="10" x2="87" y2="10" gradientUnits="userSpaceOnUse">
<stop stop-color="#8261D7"/>
<stop offset="1" stop-color="#F33B69" stop-opacity="0.9"/>
</linearGradient>
</defs>
</svg>
