<svg width="60" height="60" viewBox="0 0 60 60" fill="none" xmlns="http://www.w3.org/2000/svg">
<circle cx="30" cy="30" r="30" fill="white"/>
<path d="M9.73373 26.764H6.48573V24.85H15.3307V26.764H12.0827V35H9.73373V26.764ZM23.2836 31.1285C23.2836 31.1575 23.2691 31.3605 23.2401 31.7375H17.3386C17.445 32.2208 17.6963 32.6027 18.0926 32.883C18.489 33.1633 18.982 33.3035 19.5716 33.3035C19.9776 33.3035 20.3353 33.2455 20.6446 33.1295C20.9636 33.0038 21.2585 32.8105 21.5291 32.5495L22.7326 33.8545C21.998 34.6955 20.925 35.116 19.5136 35.116C18.634 35.116 17.8558 34.9468 17.1791 34.6085C16.5025 34.2605 15.9805 33.782 15.6131 33.173C15.2458 32.564 15.0621 31.8728 15.0621 31.0995C15.0621 30.3358 15.241 29.6495 15.5986 29.0405C15.966 28.4218 16.4638 27.9433 17.0921 27.605C17.7301 27.257 18.4406 27.083 19.2236 27.083C19.9873 27.083 20.6785 27.2473 21.2971 27.576C21.9158 27.9047 22.3991 28.3783 22.7471 28.997C23.1048 29.606 23.2836 30.3165 23.2836 31.1285ZM19.2381 28.794C18.7258 28.794 18.2956 28.939 17.9476 29.229C17.5996 29.519 17.387 29.9153 17.3096 30.418H21.1521C21.0748 29.925 20.8621 29.5335 20.5141 29.2435C20.1661 28.9438 19.7408 28.794 19.2381 28.794ZM35.7401 32.825H31.0276L30.1286 35H27.7216L32.2456 24.85H34.5656L39.1041 35H36.6391L35.7401 32.825ZM35.0006 31.0415L33.3911 27.1555L31.7816 31.0415H35.0006ZM42.1581 28.2285C42.4288 27.8515 42.7913 27.5663 43.2456 27.373C43.7096 27.1797 44.2413 27.083 44.8406 27.083V29.171C44.5893 29.1517 44.4201 29.142 44.3331 29.142C43.6854 29.142 43.1779 29.3257 42.8106 29.693C42.4433 30.0507 42.2596 30.592 42.2596 31.317V35H39.9976V27.199H42.1581V28.2285ZM49.8268 35.116C49.0051 35.116 48.2656 34.9468 47.6083 34.6085C46.9606 34.2605 46.4531 33.782 46.0858 33.173C45.7185 32.564 45.5348 31.8728 45.5348 31.0995C45.5348 30.3262 45.7185 29.635 46.0858 29.026C46.4531 28.417 46.9606 27.9433 47.6083 27.605C48.2656 27.257 49.0051 27.083 49.8268 27.083C50.6485 27.083 51.3831 27.257 52.0308 27.605C52.6785 27.9433 53.186 28.417 53.5533 29.026C53.9206 29.635 54.1043 30.3262 54.1043 31.0995C54.1043 31.8728 53.9206 32.564 53.5533 33.173C53.186 33.782 52.6785 34.2605 52.0308 34.6085C51.3831 34.9468 50.6485 35.116 49.8268 35.116ZM49.8268 33.26C50.4068 33.26 50.8805 33.0667 51.2478 32.68C51.6248 32.2837 51.8133 31.7568 51.8133 31.0995C51.8133 30.4422 51.6248 29.9202 51.2478 29.5335C50.8805 29.1372 50.4068 28.939 49.8268 28.939C49.2468 28.939 48.7683 29.1372 48.3913 29.5335C48.0143 29.9202 47.8258 30.4422 47.8258 31.0995C47.8258 31.7568 48.0143 32.2837 48.3913 32.68C48.7683 33.0667 49.2468 33.26 49.8268 33.26Z" fill="black"/>
</svg>
